<svg width="51" height="50" viewBox="0 0 51 50" fill="none" xmlns="http://www.w3.org/2000/svg">
<path d="M46.0315 4.42369C43.1789 1.57101 39.386 0 35.3517 0C31.3177 0 27.5245 1.5712 24.672 4.42369C22.4763 6.61937 21.0283 9.39026 20.4845 12.4366C19.9982 15.1616 20.2602 17.9319 21.2402 20.4957L19.6823 22.0537L16.0121 23.1025C15.6472 23.2068 15.362 23.4921 15.2577 23.8569L14.2981 27.2142L10.9405 28.1739C10.5757 28.2782 10.2905 28.5635 10.1863 28.9283L9.22652 32.2858L5.86899 33.2455C5.50418 33.3497 5.21899 33.635 5.11463 33.9997L4.1546 37.3578L0.79668 38.3177C0.276066 38.4665 -0.0584945 38.9725 0.00851619 39.5099L1.04935 47.8569C1.10956 48.3395 1.4797 48.7249 1.95941 48.8047L9.06698 49.9851C9.12699 49.9951 9.1871 50 9.24702 50C9.53585 50 9.81602 49.886 10.0238 49.6783L30.3454 29.3566C35.8152 31.279 41.8999 29.9147 46.0315 25.7832C48.8842 22.9306 50.4552 19.1377 50.4552 15.1034C50.4552 11.0691 48.8842 7.27617 46.0315 4.42369ZM44.478 24.2296C40.7983 27.9092 35.3056 29.0206 30.4841 27.0605C30.0749 26.8939 29.6059 26.989 29.2937 27.3012L8.86969 47.7254L3.12796 46.7718L2.30501 40.1716L5.34503 39.3026C5.70984 39.1983 5.99503 38.9131 6.09929 38.5484L7.05942 35.1904L10.4169 34.2308C10.7818 34.1266 11.0669 33.8413 11.1713 33.4765L12.131 30.1189L15.4888 29.159C15.8536 29.0547 16.1388 28.7694 16.243 28.4046L17.2027 25.0473L20.5599 24.088C20.7393 24.0366 20.9028 23.9404 21.0349 23.8085L23.3114 21.5319C23.6318 21.2113 23.7226 20.7269 23.5399 20.3121C21.3753 15.4 22.4296 9.77321 26.2257 5.97705C28.6634 3.53925 31.9045 2.19677 35.352 2.19687C38.7995 2.19687 42.0406 3.53944 44.4783 5.97705C49.5103 11.0095 49.5103 19.1975 44.478 24.2296Z" fill="white"/>
<path d="M45.4151 14.0333C45.1731 11.7379 44.1415 9.57563 42.5105 7.94461C40.8794 6.31359 38.7171 5.28202 36.4218 5.0399C34.92 4.88193 33.5275 5.6627 32.8749 7.03021C32.2174 8.40817 32.4883 9.99415 33.5652 11.0712L39.3839 16.8898C40.0703 17.5761 40.9631 17.935 41.8774 17.935C42.3977 17.935 42.925 17.8185 43.4248 17.5803C44.7922 16.9277 45.5735 15.5354 45.4151 14.0333ZM42.4786 15.5974C42.0597 15.7972 41.4348 15.8336 40.9374 15.3363L35.1188 9.51759C34.6214 9.02033 34.6579 8.39536 34.8577 7.97644C34.9466 7.79029 35.2818 7.21607 36.0288 7.21607C36.0809 7.21607 36.1351 7.21883 36.1914 7.22474C37.988 7.41434 39.6804 8.22162 40.957 9.49817C42.2335 10.7746 43.0408 12.4669 43.2303 14.2637C43.3211 15.1251 42.6779 15.5022 42.4786 15.5974Z" fill="white"/>
<path d="M19.6251 28.6822L7.05518 41.2521C6.62622 41.681 6.62622 42.3766 7.05518 42.8056C7.26972 43.0201 7.55087 43.1274 7.83192 43.1274C8.11297 43.1274 8.39422 43.0201 8.60865 42.8056L21.1786 30.2356C21.6075 29.8066 21.6075 29.1111 21.1786 28.6821C20.7497 28.2532 20.0541 28.2532 19.6251 28.6822Z" fill="white"/>
<path d="M23.3051 25.0022L23.1952 25.1121C22.7662 25.541 22.7662 26.2366 23.1952 26.6656C23.4097 26.8801 23.6909 26.9874 23.9719 26.9874C24.253 26.9874 24.5342 26.8801 24.7487 26.6656L24.8585 26.5557C25.2875 26.1268 25.2875 25.4312 24.8585 25.0022C24.4296 24.5732 23.734 24.5732 23.3051 25.0022Z" fill="white"/>
</svg>
