<svg width="45" height="50" viewBox="0 0 45 50" fill="none" xmlns="http://www.w3.org/2000/svg">
<path fill-rule="evenodd" clip-rule="evenodd" d="M41.938 22.8659L43.9278 23.7216C44.3125 23.8795 44.5648 24.2537 44.5669 24.6702V30.0827C44.5669 30.6515 44.1053 31.1134 43.5362 31.1134H42.1959V33.1755C42.1959 33.7443 41.734 34.2062 41.1648 34.2062H37.464C37.1125 35.4969 36.5958 36.7383 35.9277 37.8969L38.5464 40.5156C38.9465 40.9174 38.9465 41.567 38.5464 41.9691L34.165 46.3506C33.7629 46.7506 33.1133 46.7506 32.7115 46.3506L30.0928 43.7322C28.9338 44.4013 27.6928 44.9166 26.4021 45.2681V48.9693C26.4021 49.5381 25.9402 50 25.3711 50H19.1857C18.6165 50 18.1546 49.5381 18.1546 48.9693V45.2681C16.8671 44.9156 15.6299 44.4002 14.4741 43.7322L11.8557 46.3506C11.4536 46.7506 10.804 46.7506 10.4022 46.3506L6.0208 41.9691C5.62074 41.567 5.62074 40.9174 6.0208 40.5156L8.63917 37.8969C7.97113 36.7383 7.45472 35.4969 7.10322 34.2062H3.40207C2.8329 34.2062 2.37135 33.7443 2.37135 33.1755V31.1134H1.03107C0.461902 31.1134 0 30.6515 0 30.0827V24.6702C0 24.2568 0.247373 23.8826 0.628913 23.7216L2.59811 22.8865V21.5155C2.57016 13.1649 7.83905 5.71438 15.7218 2.95869V1.03107C15.7218 0.461902 16.1837 0 16.7525 0H27.7836C28.3525 0 28.8144 0.461902 28.8144 1.03107V2.94855C36.6971 5.70424 41.966 13.1548 41.938 21.5053V22.8659ZM17.763 2.07227L17.7836 19.2989H26.7526V2.07227H17.763ZM35.6803 32.9585C35.7845 32.4753 36.2167 32.1329 36.7114 32.1445H40.1442L40.1341 31.1134H30.7011C30.2308 34.9938 27.1722 38.0517 23.2918 38.5227C18.634 39.0887 14.4 35.7712 13.835 31.1134H4.41252V32.1445H7.84534C8.34009 32.1329 8.77194 32.4753 8.87641 32.9585C9.23594 34.5679 9.88547 36.0979 10.7939 37.4741C11.0587 37.8815 11.0021 38.4186 10.6597 38.7627L8.19579 41.2267L11.1132 44.1445L13.5772 41.6805C13.9217 41.3381 14.4587 41.2815 14.8661 41.5464C16.2504 42.4475 17.7878 43.0865 19.402 43.4331C19.8855 43.5372 20.2279 43.9691 20.2164 44.4638V47.969H24.34V44.4949C24.3288 44.0002 24.6709 43.568 25.1544 43.4638C26.769 43.1165 28.306 42.4771 29.6906 41.5775C30.098 41.3123 30.6351 41.3692 30.9792 41.7113L33.4432 44.1752L36.3917 41.2473L33.9278 38.7833C33.5857 38.4392 33.5288 37.9022 33.7939 37.4948C34.694 36.1101 35.333 34.5731 35.6803 32.9585ZM21.2517 36.4371C24.7586 37.0042 28.0618 34.6206 28.6288 31.1134H15.9381H15.9279C16.3703 33.8495 18.5156 35.9948 21.2517 36.4371ZM4.04112 24.4948L2.05165 25.3504V29.0516H42.5152V25.3711L40.5258 24.5154C40.1442 24.3547 39.8969 23.9805 39.8969 23.5671V21.505C39.9259 14.2959 35.5371 7.80307 28.835 5.14416V20.33C28.835 20.8988 28.3731 21.3607 27.8039 21.3607H16.7525C16.1833 21.3607 15.7218 20.8988 15.7218 20.33V5.14416C9.03084 7.80411 4.64732 14.2844 4.67003 21.4844V23.5462C4.67003 23.9598 4.42266 24.3341 4.04112 24.4948Z" fill="white"/>
</svg>
