<svg width="60" height="51" viewBox="0 0 60 51" fill="none" xmlns="http://www.w3.org/2000/svg">
<path d="M59.5064 17.7466H25.9854L59.5064 50.9999V17.7466Z" fill="#FF7F00"/>
<path d="M25.1191 41.0067C21.9144 41.0067 18.8827 39.9729 16.111 37.9053C12.0398 34.5456 9.96096 30.5827 9.96096 26.0168V24.983C9.96096 22.4847 10.7407 19.8141 12.2998 17.2297C15.7644 12.4054 20.0088 10.0794 25.0325 10.0794H59.4197C59.5063 10.0794 59.593 9.99322 59.593 9.90707V0.172297C59.593 0.0861484 59.5063 0 59.4197 0H24.8592C18.7961 0 13.0793 2.41216 7.79568 7.1503C2.59848 12.4915 0 18.3496 0 24.8107V26.2754C0 29.6351 0.866157 33.1671 2.59848 36.8715C3.55128 39.0253 5.37024 41.4373 8.22864 44.2803C13.5125 48.7599 18.9694 50.9999 24.8592 50.9999H52.4038L42.2695 41.0067H25.1191Z" fill="white"/>
</svg>
